<?xml version="1.0" encoding="UTF-8"?>
<svg width="570px" height="570px" viewBox="0 0 570 570" version="1.1" xmlns="http://www.w3.org/2000/svg" xmlns:xlink="http://www.w3.org/1999/xlink">
    <!-- Generator: Sketch 41.2 (35397) - http://www.bohemiancoding.com/sketch -->
    <title>Combined Shape</title>
    <desc>Created with Sketch.</desc>
    <defs></defs>
    <g id="Page-1" stroke="none" stroke-width="1" fill="none" fill-rule="evenodd">
        <path d="M285,570 C442.401154,570 570,442.401154 570,285 C570,127.598846 442.401154,0 285,0 C127.598846,0 0,127.598846 0,285 C0,442.401154 127.598846,570 285,570 Z M398.921,397.478 C389.258,407.146 376.234,413.029 361.61,413.044 C346.806,413.032 333.622,407.208 323.969,397.732 C314.351,388.212 308.497,375.379 308.475,360.763 C308.489,333.207 297.088,308.105 278.921,290.167 C261.132,272.533 235.036,261.475 208.051,261.063 L208.051,261.021 C193.444,261.012 180.373,255.109 170.676,245.403 C161.02,235.667 155.11,222.434 155.102,207.78 C155.116,193.124 160.992,180.072 170.61,170.446 C180.265,160.852 193.354,154.991 208.05,154.98 C222.745,154.986 235.946,160.87 245.669,170.485 C255.353,180.135 261.256,193.169 261.275,207.754 L261.275,207.78 C261.335,263.026 306.39,307.527 361.608,307.562 L361.754,307.562 C381.122,307.562 399.217,301.921 414.378,292.262 L414.431,359.983 C414.402,374.633 408.517,387.796 398.921,397.478 Z M308.385,207.764 C308.397,193.172 314.304,180.137 323.989,170.489 C333.711,160.871 346.911,154.988 361.611,154.982 C386.114,154.936 408.105,171.65 414.315,194.144 L414.315,207.8 L414.318,212.247 C413.033,225.359 406.312,236.832 398.022,245.359 C388.747,254.807 376.302,260.543 361.611,260.583 C346.911,260.576 333.711,254.692 323.989,245.078 C314.301,235.421 308.393,222.381 308.385,207.782 L308.385,207.764 Z M461.419,109.107 L414.315,109.142 L414.315,122.984 C399.007,113.51 380.961,108.021 361.611,108 C330.854,108.021 303.263,121.848 284.83,143.631 C266.4,121.848 238.808,108.021 208.053,108.003 C152.784,108.018 108.014,152.667 108.001,207.783 C107.996,235.261 119.208,260.397 137.239,278.493 C154.887,296.274 179.457,307.554 206.483,307.966 L206.483,308.003 L204.913,308.003 C219.616,308.01 235.998,313.899 245.741,323.511 C255.45,333.168 261.36,346.187 261.374,360.767 C261.378,375.348 255.382,388.808 245.578,398.725 C235.914,408.442 221.495,414.379 207.268,414.591 C192.891,414.372 180.097,408.564 170.615,399.147 C160.996,389.518 155.117,376.465 155.105,361.812 L108,361.812 C108.014,416.403 151.943,460.699 206.481,461.549 L206.481,461.589 L207.981,461.589 C208.003,461.589 208.027,461.591 208.051,461.591 L208.051,461.589 L208.065,461.589 C235.826,461.591 261.054,449.978 279.085,431.74 C281.21,429.597 283.231,427.352 285.163,425.023 C286.986,427.147 288.883,429.208 290.878,431.165 C309.003,449.043 334.163,460.034 361.61,460.025 L361.661,460.025 C389.265,460.025 414.405,448.663 432.367,430.561 C450.035,412.818 461.098,388.298 461.502,361.453 L461.543,361.453 L461.419,109.107 Z" id="Combined-Shape" fill="#000000"></path>
    </g>
</svg>