<?xml version="1.0" standalone="no"?>
<!DOCTYPE svg PUBLIC "-//W3C//DTD SVG 20010904//EN"
 "http://www.w3.org/TR/2001/REC-SVG-20010904/DTD/svg10.dtd">
<svg version="1.0" xmlns="http://www.w3.org/2000/svg"
 width="285.000000pt" height="285.000000pt" viewBox="0 0 285.000000 285.000000"
 preserveAspectRatio="xMidYMid meet">
<metadata>
Created by potrace 1.11, written by Peter Selinger 2001-2013
</metadata>
<g transform="translate(0.000000,285.000000) scale(0.100000,-0.100000)"
fill="#000000" stroke="none">
<path d="M1289 2846 c-2 -2 -29 -7 -59 -10 -231 -27 -507 -146 -700 -302 -104
-84 -310 -318 -310 -353 0 -5 -4 -11 -8 -13 -13 -5 -98 -178 -125 -255 -29
-79 -56 -179 -62 -227 -3 -17 -7 -42 -11 -56 -12 -53 -11 -327 2 -415 69 -458
360 -857 778 -1067 85 -43 247 -99 336 -117 30 -6 69 -13 85 -16 52 -10 307
-14 370 -5 119 16 149 22 234 46 432 125 794 463 945 884 59 163 81 295 81
485 -1 254 -36 409 -142 624 -83 168 -146 255 -277 386 -201 200 -454 334
-737 390 -73 15 -389 31 -400 21z m-72 -569 c67 -27 135 -70 172 -111 14 -14
29 -26 34 -26 5 0 27 18 50 41 47 46 155 101 236 119 93 22 261 -2 326 -47 29
-19 35 -16 35 16 0 16 6 31 13 33 6 2 59 4 117 3 l105 -1 1 -649 c2 -712 1
-722 -56 -836 -144 -285 -551 -357 -780 -137 l-42 40 -26 -24 c-63 -57 -77
-68 -133 -98 -144 -76 -330 -73 -479 9 -63 35 -160 137 -192 202 -33 67 -46
109 -54 177 l-6 53 118 -3 118 -3 8 -42 c9 -54 28 -90 71 -134 47 -49 100 -72
174 -77 50 -3 71 0 115 20 175 81 217 292 86 427 -45 46 -102 69 -206 81 -159
19 -264 69 -350 166 -181 203 -174 494 17 685 108 107 218 149 376 144 67 -3
106 -10 152 -28z"/>
<path d="M977 2065 c-198 -50 -266 -291 -123 -438 48 -50 104 -74 191 -82 113
-12 142 -19 224 -59 139 -67 244 -213 264 -365 18 -145 28 -180 61 -223 101
-134 283 -150 398 -36 68 68 73 89 76 319 l3 206 -49 -24 c-75 -37 -140 -50
-227 -47 -217 8 -389 134 -461 338 -16 44 -19 64 -29 165 -16 174 -166 287
-328 246z"/>
<path d="M1755 2070 c-85 -18 -171 -94 -199 -176 -31 -91 1 -213 72 -275 140
-123 345 -77 423 95 26 57 26 164 0 215 -51 98 -188 164 -296 141z"/>
</g>
</svg>
